<svg width="269" height="127" viewBox="0 0 269 127" fill="none" xmlns="http://www.w3.org/2000/svg">
<path fill-rule="evenodd" clip-rule="evenodd" d="M43.3976 50.1408L42.572 49.6481C41.6328 49.0876 40.4249 49.2932 39.7243 50.1326C38.9159 51.1011 38.4617 52.3157 38.436 53.5764L38.4256 54.091L38.5254 54.1404C32.2151 59.3381 13.119 59.6283 4.16669 59.1045C4.4812 62.5713 8.27235 66.1967 10.1286 67.5761L21.2441 66.5696C19.8438 68.0071 14.1371 69.5797 11.4587 70.1864C14.4946 72.3145 19.9352 76.2456 22.276 77.9452C25.608 78.5174 31.7987 73.442 34.4776 70.8328C33.747 74.8312 28.9301 78.9811 26.6131 80.5564C32.6452 84.3793 37.4065 85.0405 39.0333 84.8932C40.4335 83.4557 42.6587 75.6446 43.5963 71.9187C44.0477 79.3054 42.6481 84.566 41.8918 86.2729C43.0549 87.0413 47.0756 86.1675 48.9406 85.6346C52.1552 82.5036 49.3649 66.208 47.5679 58.4516L47.5519 58.4429C48.274 58.3076 48.8939 57.8257 49.2027 57.1506C49.8499 55.7363 49.4541 54.078 48.2912 53.109L47.7894 54.0074C46.9863 55.4455 45.1398 55.916 43.7454 55.0378C42.4298 54.2092 42.0121 52.4858 42.8027 51.1477L43.3976 50.1408Z" fill="#001649"/>
<path d="M66.4875 15.8395L48.8589 51.8093C48.1407 53.2748 46.2774 53.7456 44.9482 52.7974C43.8771 52.0334 43.5316 50.5986 44.1377 49.4315L62.5986 13.881C63.1952 12.732 64.6579 12.3545 65.737 13.0708C66.647 13.675 66.9679 14.8593 66.4875 15.8395Z" fill="#001649"/>
<path d="M25.6541 25.8643L26.7651 28.3062C28.1345 31.3162 30.7506 33.5791 33.9283 34.5024L36.1845 35.1579L34.0831 36.2081C31.1232 37.6872 28.957 40.3831 28.1516 43.5901L27.4983 46.1916L26.3873 43.7497C25.0179 40.7398 22.4018 38.4768 19.2241 37.5535L16.9679 36.898L19.0693 35.8478C22.0292 34.3687 24.1954 31.6728 25.0008 28.4659L25.6541 25.8643Z" fill="#001649"/>
<path d="M40.2502 10.8798L40.3861 11.1858C41.6507 14.0349 44.0957 16.1916 47.082 17.0926C44.3065 18.5154 42.2895 21.0761 41.5581 24.1059L41.4796 24.4313L41.3437 24.1253C40.0791 21.2763 37.6341 19.1194 34.6478 18.2185C37.4233 16.7958 39.4403 14.235 40.1716 11.2053L40.2502 10.8798Z" fill="#001649"/>
<path d="M76.2371 104.621C75.7044 104.984 75.0022 105.274 74.1305 105.492C73.283 105.709 72.4597 105.818 71.6607 105.818C70.329 105.818 69.1182 105.492 68.0286 104.839C66.939 104.161 66.0673 103.254 65.4135 102.117C64.7839 100.956 64.4692 99.6496 64.4692 98.1982C64.4692 96.7468 64.7839 95.4647 65.4135 94.3519C66.0673 93.2392 66.939 92.3683 68.0286 91.7394C69.1182 91.0862 70.3531 90.7596 71.7333 90.7596C73.1861 90.7596 74.4089 91.0258 75.4017 91.5579C75.7407 91.7031 75.9102 91.9571 75.9102 92.3199C75.9102 92.3683 75.9102 92.4288 75.9102 92.5014C75.9102 92.5739 75.886 92.6344 75.8376 92.6828C75.7649 92.8038 75.6438 92.9126 75.4743 93.0094C75.3049 93.1061 75.1233 93.1303 74.9295 93.0819C73.9852 92.5498 72.9077 92.2836 71.697 92.2836C70.6315 92.2836 69.6752 92.5498 68.8277 93.0819C68.0044 93.5899 67.3627 94.2915 66.9027 95.1865C66.4426 96.0574 66.2126 97.0612 66.2126 98.1982C66.2126 99.9883 66.7211 101.44 67.738 102.553C68.755 103.641 70.111 104.21 71.806 104.258C72.5324 104.258 73.2225 104.137 73.8762 103.895C74.5542 103.629 75.0627 103.363 75.4017 103.097C75.4743 103.048 75.547 103.012 75.6196 102.988C75.6923 102.964 75.7649 102.952 75.8376 102.952C76.0313 102.952 76.2129 103.036 76.3824 103.206C76.5518 103.375 76.6366 103.556 76.6366 103.75C76.6366 104.016 76.5035 104.306 76.2371 104.621ZM91.8871 105.455C91.3543 105.455 90.9185 105.298 90.5795 104.984C90.2405 104.669 90.0711 104.222 90.0711 103.641V91.5942C90.0711 91.3281 90.1557 91.1225 90.3253 90.9774C90.5189 90.8322 90.7248 90.7596 90.9427 90.7596C91.1848 90.7596 91.3906 90.8322 91.5602 90.9774C91.7297 91.1225 91.8145 91.3281 91.8145 91.5942V102.625C91.8145 103.472 92.2381 103.895 93.0857 103.895H97.1536C97.4199 103.895 97.6015 103.98 97.6984 104.149C97.8194 104.294 97.88 104.464 97.88 104.657C97.88 104.851 97.8194 105.032 97.6984 105.201C97.6015 105.371 97.4199 105.455 97.1536 105.455H91.8871ZM113.459 105.455C112.926 105.455 112.49 105.31 112.151 105.02C111.836 104.73 111.679 104.294 111.679 103.714V92.7191C111.679 92.2595 111.824 91.8845 112.115 91.5942C112.43 91.2798 112.817 91.1225 113.277 91.1225H119.27C119.536 91.1225 119.73 91.2072 119.851 91.3765C119.972 91.5458 120.033 91.7394 120.033 91.9571C120.033 92.1506 119.96 92.3199 119.815 92.4651C119.67 92.6102 119.488 92.6828 119.27 92.6828H114.694C113.846 92.6828 113.422 93.1061 113.422 93.9528V96.1662C113.422 97.0129 113.846 97.4362 114.694 97.4362H118.762C119.27 97.4362 119.525 97.6902 119.525 98.1982C119.525 98.6578 119.27 98.8876 118.762 98.8876H114.694C113.846 98.8876 113.422 99.3109 113.422 100.158V102.625C113.422 103.472 113.846 103.895 114.694 103.895H119.452C119.742 103.895 119.935 103.98 120.033 104.149C120.153 104.318 120.215 104.5 120.215 104.693C120.215 104.863 120.153 105.032 120.033 105.201C119.912 105.371 119.717 105.455 119.452 105.455H113.459ZM133.851 105.818C133.633 105.818 133.426 105.734 133.233 105.564C133.039 105.395 132.943 105.189 132.943 104.947C132.943 104.851 132.967 104.73 133.015 104.585L138.028 91.7394C138.148 91.4007 138.342 91.1588 138.609 91.0136C138.899 90.8443 139.19 90.7596 139.48 90.7596C140.207 90.7596 140.69 91.0862 140.933 91.7394L145.946 104.585C145.993 104.73 146.018 104.851 146.018 104.947C146.018 105.189 145.921 105.395 145.728 105.564C145.534 105.734 145.328 105.818 145.11 105.818C144.747 105.818 144.48 105.613 144.311 105.201L143.113 102.081C142.918 101.597 142.579 101.355 142.096 101.355H136.865C136.381 101.355 136.041 101.597 135.848 102.081L134.65 105.201C134.48 105.613 134.214 105.818 133.851 105.818ZM137.338 99.8674H141.623C142.034 99.8674 142.168 99.6618 142.023 99.2505L140.025 93.7714C139.88 93.3843 139.698 93.1908 139.48 93.1908C139.263 93.1908 139.081 93.3843 138.936 93.7714L136.938 99.2505C136.793 99.6618 136.926 99.8674 137.338 99.8674ZM160.306 105.818C160.064 105.818 159.857 105.734 159.688 105.564C159.543 105.395 159.47 105.201 159.47 104.984V92.5014C159.47 92.0175 159.616 91.6426 159.906 91.3765C160.197 91.0862 160.511 90.9411 160.851 90.9411C161.045 90.9411 161.238 90.9895 161.432 91.0862C161.65 91.1829 161.831 91.3402 161.977 91.5579L168.914 102.516C169.035 102.71 169.156 102.807 169.277 102.807C169.471 102.807 169.568 102.649 169.568 102.335L169.531 91.7756C169.531 91.5579 169.616 91.3644 169.786 91.1951C169.98 91.0258 170.198 90.9411 170.439 90.9411C170.681 90.9411 170.875 91.0258 171.02 91.1951C171.19 91.3644 171.275 91.5579 171.275 91.7756V104.258C171.275 104.742 171.129 105.129 170.839 105.419C170.548 105.685 170.234 105.818 169.894 105.818C169.7 105.818 169.495 105.77 169.277 105.673C169.083 105.576 168.914 105.419 168.769 105.201L161.795 94.2431C161.674 94.0495 161.553 93.9528 161.432 93.9528C161.238 93.9528 161.141 94.1101 161.141 94.4245L161.214 104.984C161.214 105.201 161.129 105.395 160.96 105.564C160.79 105.734 160.573 105.818 160.306 105.818ZM186.813 105.818C186.57 105.818 186.365 105.734 186.196 105.564C186.05 105.395 185.978 105.201 185.978 104.984V91.5942C185.978 91.3281 186.05 91.1225 186.196 90.9774C186.365 90.8322 186.57 90.7596 186.813 90.7596C187.079 90.7596 187.297 90.8322 187.467 90.9774C187.636 91.1225 187.721 91.3281 187.721 91.5942V104.984C187.721 105.201 187.636 105.395 187.467 105.564C187.297 105.734 187.079 105.818 186.813 105.818ZM203.273 105.818C203.031 105.818 202.826 105.734 202.656 105.564C202.51 105.395 202.438 105.201 202.438 104.984V92.5014C202.438 92.0175 202.583 91.6426 202.874 91.3765C203.164 91.0862 203.48 90.9411 203.818 90.9411C204.012 90.9411 204.206 90.9895 204.399 91.0862C204.617 91.1829 204.799 91.3402 204.944 91.5579L211.881 102.516C212.003 102.71 212.124 102.807 212.244 102.807C212.438 102.807 212.535 102.649 212.535 102.335L212.499 91.7756C212.499 91.5579 212.584 91.3644 212.753 91.1951C212.947 91.0258 213.165 90.9411 213.407 90.9411C213.65 90.9411 213.842 91.0258 213.988 91.1951C214.158 91.3644 214.242 91.5579 214.242 91.7756V104.258C214.242 104.742 214.097 105.129 213.806 105.419C213.516 105.685 213.201 105.818 212.862 105.818C212.669 105.818 212.462 105.77 212.244 105.673C212.051 105.576 211.881 105.419 211.736 105.201L204.762 94.2431C204.642 94.0495 204.521 93.9528 204.399 93.9528C204.206 93.9528 204.109 94.1101 204.109 94.4245L204.181 104.984C204.181 105.201 204.097 105.395 203.927 105.564C203.758 105.734 203.54 105.818 203.273 105.818ZM235.047 105.818C233.667 105.818 232.432 105.492 231.342 104.839C230.276 104.161 229.43 103.242 228.8 102.081C228.17 100.92 227.855 99.6255 227.855 98.1982C227.855 96.7468 228.17 95.4647 228.8 94.3519C229.43 93.2392 230.289 92.3683 231.379 91.7394C232.492 91.0862 233.752 90.7596 235.156 90.7596C236.124 90.7596 237.021 90.9169 237.844 91.2314C238.692 91.5458 239.454 91.9571 240.132 92.4651C240.326 92.5861 240.422 92.7795 240.422 93.0456C240.422 93.2634 240.337 93.4689 240.168 93.6625C240.023 93.8561 239.829 93.9528 239.587 93.9528C239.442 93.9528 239.273 93.8802 239.079 93.7351C238.474 93.1787 237.844 92.8038 237.19 92.6102C236.56 92.3925 235.895 92.2836 235.192 92.2836C233.498 92.2836 232.129 92.8279 231.088 93.9165C230.071 95.0051 229.563 96.4323 229.563 98.1982C229.563 99.9641 230.059 101.428 231.052 102.589C232.045 103.726 233.376 104.294 235.047 104.294C236.5 104.294 237.686 103.883 238.606 103.06C239.527 102.238 240.047 101.198 240.168 99.9399C240.217 99.5529 240.035 99.3594 239.623 99.3594H236.028C235.786 99.3594 235.592 99.2868 235.446 99.1416C235.325 98.9723 235.265 98.8029 235.265 98.6336C235.265 98.4401 235.325 98.2708 235.446 98.1256C235.592 97.9805 235.786 97.9079 236.028 97.9079H240.241C241.307 97.9079 241.839 98.4281 241.839 99.4682C241.839 100.581 241.561 101.621 241.004 102.589C240.446 103.556 239.66 104.343 238.643 104.947C237.65 105.528 236.451 105.818 235.047 105.818Z" fill="#001649"/>
<path d="M64 73.1168V71.7919L65.6689 71.2872C66.5343 71.0349 67.1936 70.6564 67.6469 70.1517C68.1414 69.647 68.5329 68.953 68.8214 68.0698L81.3075 31.2268H86.4379L98.8622 68.3221C99.1919 69.2474 99.5628 69.9624 99.9748 70.4671C100.387 70.9297 101.046 71.3083 101.953 71.6027L102.88 71.855V73.1168H87.1797V71.855L88.2305 71.5396C89.1371 71.2452 89.6728 70.7825 89.8376 70.1517C90.0436 69.5208 90.0024 68.7427 89.714 67.8174L87.1178 59.6792H73.4573L70.7994 67.6913C70.5109 68.6166 70.4285 69.3736 70.5521 69.9624C70.6757 70.5512 71.1908 71.0139 72.0974 71.3503L73.4573 71.7919V73.1168H64ZM74.0754 57.8497H86.5615L80.5039 38.8604L74.0754 57.8497Z" fill="#001649"/>
<path d="M103.895 73.1168V71.9181L104.822 71.6658C106.182 71.2031 106.862 70.1517 106.862 68.5114C106.862 67.0814 106.862 65.6514 106.862 64.2215C106.903 62.7494 106.923 61.2984 106.923 59.8685V35.8953C106.923 35.0121 106.779 34.3602 106.491 33.9396C106.202 33.477 105.646 33.1405 104.822 32.9302L103.895 32.6779V31.4792L114.712 28.8295L115.515 29.3973L115.268 38.2926V68.5114C115.309 69.3526 115.474 70.0465 115.763 70.5933C116.092 71.098 116.649 71.4555 117.432 71.6658L118.297 71.9181V73.1168H103.895Z" fill="#001649"/>
<path d="M135.312 41.8886C137.908 41.8886 140.134 42.4353 141.988 43.5289C143.842 44.6224 145.264 46.1365 146.253 48.0711C147.283 49.9638 147.798 52.1508 147.798 54.6322C147.798 55.179 147.778 55.7047 147.737 56.2094C147.695 56.672 147.613 57.1136 147.489 57.5342H128.884C128.925 61.8662 129.708 64.9785 131.233 66.8711C132.799 68.7638 135.065 69.7101 138.032 69.7101C140.092 69.7101 141.761 69.3736 143.039 68.7007C144.316 67.9857 145.491 66.9973 146.562 65.7356L147.551 66.6819C146.315 68.9951 144.625 70.8036 142.482 72.1074C140.381 73.3691 137.867 74 134.941 74C132.016 74 129.44 73.3691 127.215 72.1074C124.99 70.8456 123.238 69.0371 121.961 66.6819C120.724 64.2846 120.106 61.4246 120.106 58.102C120.106 54.6532 120.828 51.7302 122.27 49.3329C123.753 46.9356 125.649 45.106 127.957 43.8443C130.305 42.5405 132.757 41.8886 135.312 41.8886ZM135.003 43.7181C133.808 43.7181 132.757 44.0756 131.851 44.7906C130.985 45.4635 130.285 46.6832 129.749 48.4497C129.255 50.174 128.966 52.6134 128.884 55.7678H139.948C140.401 51.5199 140.237 48.4497 139.454 46.557C138.671 44.6644 137.187 43.7181 135.003 43.7181Z" fill="#001649"/>
<path d="M148.914 73.1168V71.9181L150.583 71.5396C151.489 71.3293 152.211 71.0349 152.746 70.6564C153.323 70.2778 153.879 69.7101 154.415 68.953L161.153 59.3638L153.179 46.494C152.767 45.8631 152.355 45.3794 151.943 45.043C151.572 44.7065 151.036 44.4541 150.336 44.2859L149.285 44.0336V42.8349H164.738V44.0336L163.811 44.2859C163.069 44.4541 162.616 44.7906 162.451 45.2953C162.327 45.7579 162.471 46.3257 162.883 46.9987L167.643 54.3799L172.712 47.1879C173.165 46.515 173.371 45.9262 173.33 45.4215C173.33 44.9168 172.938 44.5803 172.155 44.4121L170.795 44.0336V42.8349H180.315V44.0336L178.831 44.349C177.966 44.5593 177.286 44.8747 176.791 45.2953C176.297 45.6738 175.782 46.2416 175.246 46.9987L168.632 55.894L176.729 68.7638C177.677 70.1937 178.996 71.14 180.685 71.6027L181.922 71.9181V73.1168H165.294V71.9181L166.221 71.7289C166.963 71.5186 167.416 71.1611 167.581 70.6564C167.787 70.1517 167.664 69.5839 167.21 68.953L162.204 61.004L156.764 68.8899C156.311 69.5629 156.167 70.1517 156.331 70.6564C156.496 71.1611 156.929 71.4975 157.629 71.6658L158.742 71.9181V73.1168H148.914Z" fill="#001649"/>
<path d="M191.18 74C188.831 74 186.833 73.3271 185.184 71.9812C183.577 70.5933 182.774 68.6166 182.774 66.051C182.774 64.0322 183.721 62.1817 185.617 60.4993C187.554 58.7749 190.583 57.5132 194.703 56.7141C195.404 56.5459 196.207 56.3987 197.114 56.2725C198.062 56.1042 198.989 55.936 199.896 55.7678V51.2886C199.896 48.4286 199.545 46.4519 198.845 45.3584C198.144 44.2649 197.032 43.7181 195.507 43.7181H195.321C194.374 43.7181 193.611 44.0336 193.034 44.6644C192.499 45.2532 192.148 46.2416 191.984 47.6295L191.798 48.4497C191.675 50.132 191.242 51.3727 190.5 52.1718C189.758 52.9289 188.831 53.3074 187.719 53.3074C186.688 53.3074 185.823 52.9919 185.122 52.3611C184.463 51.6881 184.133 50.8259 184.133 49.7745C184.133 48.0501 184.71 46.5991 185.864 45.4215C187.018 44.2438 188.543 43.3606 190.438 42.7718C192.375 42.183 194.456 41.8886 196.681 41.8886C200.349 41.8886 203.151 42.7928 205.088 44.6013C207.025 46.4098 207.993 49.3539 207.993 53.4336V67.502C207.993 69.3105 208.838 70.2148 210.527 70.2148H211.949L212.567 70.9087C211.825 71.8761 211.001 72.6121 210.095 73.1168C209.188 73.6635 207.952 73.9369 206.386 73.9369C204.614 73.9369 203.192 73.5163 202.121 72.6752C201.091 71.7919 200.411 70.6353 200.081 69.2054C198.762 70.6353 197.464 71.7919 196.187 72.6752C194.909 73.5584 193.24 74 191.18 74ZM194.765 69.9624C195.589 69.9624 196.372 69.7732 197.114 69.3946C197.856 69.0161 198.783 68.3852 199.896 67.502V57.4081C198.824 57.5763 197.732 57.7866 196.62 58.0389C194.848 58.4595 193.405 59.2376 192.293 60.3732C191.221 61.5087 190.686 63.0438 190.686 64.9785C190.686 66.6608 191.056 67.9226 191.798 68.7638C192.581 69.5629 193.57 69.9624 194.765 69.9624Z" fill="#001649"/>
<path d="M215.813 27C217.297 27 218.492 27.5468 219.398 28.6403C220.305 29.6917 220.758 31.1217 220.758 32.9302C220.758 35.2434 220.099 37.4094 218.78 39.4282C217.462 41.447 215.834 42.94 213.897 43.9074L213.279 42.8349C214.103 42.162 214.824 41.3418 215.442 40.3745C216.102 39.4072 216.617 38.2295 216.988 36.8416L215.69 36.4631C214.371 36.0425 213.32 35.4116 212.537 34.5705C211.795 33.7293 211.425 32.6989 211.425 31.4792C211.425 30.1333 211.857 29.0608 212.723 28.2617C213.588 27.4206 214.618 27 215.813 27Z" fill="#001649"/>
<path d="M228.648 74C226.671 74 224.878 73.7687 223.271 73.306C221.705 72.8855 220.201 72.2756 218.759 71.4765V64.0322H220.427L222.282 67.6282C223.065 69.1843 223.951 70.3409 224.94 71.098C225.97 71.855 227.268 72.2336 228.834 72.2336C230.771 72.2336 232.316 71.813 233.47 70.9718C234.624 70.0886 235.201 68.911 235.201 67.4389C235.201 66.0931 234.768 64.9996 233.903 64.1584C233.037 63.3172 231.492 62.5391 229.267 61.8242L226.547 60.9409C224.116 60.1839 222.179 59.0483 220.737 57.5342C219.335 55.9781 218.635 54.0434 218.635 51.7302C218.635 49.9217 219.109 48.2814 220.057 46.8094C221.004 45.2953 222.385 44.0966 224.198 43.2134C226.011 42.3302 228.216 41.8886 230.812 41.8886C232.501 41.8886 234.047 42.0989 235.448 42.5195C236.89 42.898 238.291 43.4447 239.651 44.1597L239.28 50.9101H237.673L235.757 47.3141C235.098 45.9682 234.418 45.043 233.717 44.5383C233.058 43.9915 232.028 43.7181 230.627 43.7181C229.143 43.7181 227.824 44.1177 226.671 44.9168C225.558 45.6738 225.002 46.7463 225.002 48.1342C225.002 49.438 225.475 50.5105 226.423 51.3517C227.371 52.1508 228.896 52.9078 230.997 53.6228L233.655 54.443C236.664 55.4103 238.806 56.6931 240.084 58.2913C241.361 59.8895 242 61.8031 242 64.0322C242 67.0183 240.826 69.4367 238.477 71.2872C236.169 73.0957 232.893 74 228.648 74Z" fill="#001649"/>
</svg>
