<svg width="200" height="42" viewBox="0 0 1323 276" fill="none" xmlns="http://www.w3.org/2000/svg">
<path d="M196.906 240.065C195.313 239.487 193.951 238.862 192.551 238.338C190.662 237.63 188.743 237 186.052 236.063C189.393 249.497 192.54 262.15 195.797 275.249C193.166 275.249 190.784 275.411 188.451 275.143C187.816 275.07 187.035 273.778 186.817 272.92C183.334 259.245 179.93 245.55 176.512 231.859C175.712 228.652 174.853 225.458 174.16 222.228C173.798 220.54 173.034 219.937 171.258 219.967C164.734 220.074 158.207 220.012 151.681 220.01C129.153 220.006 106.626 220.03 84.0984 219.949C82.0088 219.942 81.1897 220.58 80.6921 222.612C76.5923 239.354 72.3383 256.058 68.2323 272.798C67.7581 274.731 66.9707 275.345 64.9935 275.308C58.2912 275.184 51.585 275.29 44.8805 275.255C39.6746 275.228 37.6129 273.121 37.612 267.884C37.6062 233.913 37.6101 199.943 37.6108 165.973C37.6108 164.837 37.6108 163.701 37.6108 162.29C36.442 162.29 35.5734 162.29 34.7048 162.29C25.8546 162.289 17.004 162.238 8.15456 162.313C4.97137 162.34 1.97817 162.203 0.514863 158.751C-0.999803 155.178 1.08793 152.879 3.40046 150.574C20.9306 133.093 38.4265 115.579 55.9324 98.0745C87.6551 66.3546 119.375 34.6321 151.103 2.91714C155.053 -1.03146 157.804 -0.952716 161.792 3.0392C186.304 27.5717 210.829 52.0914 235.353 76.6118C235.975 77.2333 236.638 77.8127 237.898 78.9838C237.898 76.3531 237.88 74.3825 237.902 72.4124C237.933 69.8238 237.819 67.217 238.09 64.6522C238.406 61.66 240.443 59.6606 243.43 59.6133C251.831 59.4804 260.237 59.4711 268.637 59.596C271.995 59.6459 274.018 61.8211 274.332 65.2097C274.472 66.7171 274.41 68.2451 274.41 69.7637C274.412 84.2458 274.36 98.7283 274.483 113.209C274.495 114.612 275.232 116.348 276.22 117.351C287.442 128.753 298.757 140.065 310.106 151.341C312.257 153.478 313.54 155.748 312.278 158.737C311.064 161.613 308.611 162.328 305.693 162.309C296.575 162.253 287.457 162.29 278.338 162.29C277.376 162.291 276.414 162.29 275.193 162.29C275.193 163.604 275.193 164.652 275.193 165.701C275.191 199.582 275.192 233.463 275.187 267.344C275.186 273.329 273.287 275.246 267.366 275.259C263.118 275.268 258.871 275.26 255.062 275.26C256.323 272.263 258.143 269.492 258.612 266.508C259.725 259.431 254.24 253.279 247.093 252.913C239.355 252.516 239.355 252.516 237.959 245.063C236.442 236.958 230.218 230.356 222.109 228.749C213.502 227.043 206.498 229.852 201.089 236.823C200.068 238.137 198.458 238.994 196.906 240.065ZM110.868 199.423C100.413 199.415 89.9569 199.395 79.5013 199.416C78.1684 199.418 76.8102 199.512 75.5076 199.779C69.7043 200.964 65.3758 206.599 66.3362 211.62C107.143 211.62 147.95 211.62 189.063 211.62C188.853 210.313 188.797 209.159 188.472 208.087C186.781 202.51 182.167 199.427 175.48 199.422C154.121 199.408 132.763 199.421 110.868 199.423ZM135.721 99.1749C135.721 97.3894 135.727 95.604 135.72 93.8185C135.699 88.3085 132.414 84.5755 127.559 84.5365C122.597 84.4967 119.28 88.0676 119.23 93.6284C119.178 99.4307 119.206 105.234 119.223 111.036C119.225 111.71 119.382 112.383 119.465 113.036C124.979 113.036 130.279 113.036 135.721 113.036C135.721 108.446 135.721 104.079 135.721 99.1749ZM125.438 121.446C123.409 121.078 123.356 122.327 123.358 123.827C123.387 140.178 123.377 156.528 123.389 172.879C123.39 173.467 123.506 174.055 123.566 174.619C126.295 174.619 128.838 174.619 131.397 174.619C131.397 156.862 131.397 139.3 131.397 121.445C129.477 121.445 127.714 121.445 125.438 121.446ZM194.96 175.605C194.886 176.098 194.587 176.89 194.776 177.032C195.626 177.669 196.577 178.207 197.559 178.624C200.817 180.009 203.283 182.124 204.636 185.503C205.204 186.923 206.14 188.195 207.052 189.783C208.892 186.686 210.055 183.592 212.183 181.464C214.331 179.317 217.436 178.128 220.81 176.107C213.787 173.906 209.583 169.582 207.395 162.786C206.639 163.888 206.194 164.33 205.99 164.865C204.029 170.009 200.387 173.429 194.96 175.605ZM143.455 187.769C142.311 185.103 140.401 183.227 137.434 183.162C130.834 183.02 124.224 182.963 117.626 183.148C113.448 183.266 110.87 186.715 111.293 191.04C122.111 191.04 132.931 191.04 143.924 191.04C143.811 189.923 143.721 189.045 143.455 187.769ZM227.292 163.305C225.902 164.208 224.512 165.111 223.449 165.802C225.864 168.218 228.171 170.525 230.116 172.471C232.26 170.351 234.524 168.111 236.525 166.133C234.421 164.023 232.114 161.708 229.805 159.39C229.144 160.45 228.346 161.729 227.292 163.305Z" fill="#6F0714"/>
<path d="M119.244 244.837C119.245 255.015 119.245 264.929 119.245 275.061C116.515 275.061 113.982 275.061 111.308 275.061C111.225 274.749 111.061 274.423 111.061 274.098C111.049 263.102 111.062 252.105 111.044 241.108C111.041 239.136 111.654 237.341 113.599 236.878C114.888 236.571 116.63 236.891 117.755 237.594C118.592 238.117 118.952 239.667 119.18 240.828C119.417 242.033 119.24 243.321 119.244 244.837Z" fill="#6F0714"/>
<path d="M135.698 249.11C135.706 246.078 135.642 243.312 135.744 240.552C135.833 238.121 137.597 236.412 139.781 236.421C141.972 236.43 143.826 238.128 143.838 240.54C143.891 251.859 143.843 263.179 143.82 274.499C143.82 274.651 143.672 274.803 143.509 275.116C141.054 275.116 138.521 275.116 135.698 275.116C135.698 266.448 135.698 257.913 135.698 249.11Z" fill="#6F0714"/>
<path d="M86.387 273.121C86.3855 266.625 86.3737 260.383 86.3895 254.142C86.3982 250.721 87.9828 248.691 90.5619 248.719C93.0154 248.745 94.5965 250.759 94.6066 253.989C94.6284 260.931 94.6133 267.873 94.6133 275.263C92.165 275.263 89.8861 275.366 87.6316 275.177C87.17 275.139 86.8003 274.004 86.387 273.121Z" fill="#6F0714"/>
<path d="M161.435 250.086C165.28 247.616 168.472 249.177 168.515 253.436C168.586 260.571 168.534 267.708 168.534 275.059C165.811 275.059 163.268 275.059 160.358 275.059C160.358 272.378 160.358 269.639 160.358 266.901C160.357 262.525 160.292 258.147 160.4 253.773C160.43 252.589 160.985 251.417 161.435 250.086Z" fill="#6F0714"/>
<path d="M1008.51 14.1343C1014.31 10.1477 1019.67 6.27927 1025.23 2.71223C1029.78 -0.202136 1032.88 0.723851 1034.92 5.37238C1061.57 66.0237 1088.19 126.687 1114.82 187.35C1114.89 187.521 1114.88 187.732 1114.99 188.535C1113.57 188.731 1112.16 189.089 1110.74 189.096C1101.21 189.139 1091.68 188.924 1082.16 189.197C1078.59 189.299 1076.98 188.023 1075.74 184.842C1073.06 177.969 1069.88 171.295 1067.13 164.448C1065.95 161.507 1064.28 160.409 1061.03 160.433C1040.81 160.582 1020.59 160.584 1000.37 160.433C997.069 160.409 995.527 161.536 994.465 164.576C992.094 171.359 989.225 177.968 986.852 184.75C985.726 187.966 984.103 189.247 980.541 189.22C958.384 189.046 936.224 189.24 914.07 188.935C911.76 188.903 908.672 186.953 907.318 184.96C895.2 167.116 883.393 149.059 871.483 131.073C870.632 129.788 869.686 128.565 868.409 126.791C867.206 128.402 866.152 129.666 865.257 131.035C853.446 149.088 841.753 167.219 829.731 185.129C828.407 187.101 825.277 188.837 822.9 188.954C813.861 189.398 804.788 189.133 794.44 189.133C797.019 185.072 798.918 182.023 800.873 179.011C816.848 154.394 832.745 129.726 848.914 105.236C851.258 101.686 850.941 99.3595 848.734 96.0282C829.946 67.6795 811.333 39.2151 792.677 10.7797C791.624 9.17462 790.648 7.51846 788.898 4.69413C796.404 4.69413 803.042 5.54974 809.376 4.52424C824.773 2.03141 834.27 7.73649 841.755 21.5818C850.391 37.557 861.612 52.1351 872.247 68.1268C876.57 61.5567 880.5 55.6322 884.381 49.6759C893.187 36.1614 902.053 22.6849 910.697 9.06721C912.682 5.93929 914.827 4.49646 918.659 4.61827C927.532 4.90005 936.421 4.7078 946.337 4.7078C944.727 7.40606 943.734 9.18972 942.629 10.9015C925.667 37.1943 908.714 63.4937 891.678 89.7392C889.977 92.3603 888.985 94.3649 891.085 97.5186C909.614 125.342 927.949 153.296 946.367 181.194C947.086 182.283 948.056 183.206 949.459 184.85C954.715 171.221 959.744 158.224 964.739 145.214C978.386 109.673 991.905 74.0823 1005.78 38.6304C1007.8 33.4766 1008.41 28.9608 1005.35 24.3723C1002.29 19.7957 1003.14 16.5629 1008.51 14.1343ZM1040.37 104.063C1036.5 95.4142 1032.64 86.7652 1028.18 76.7903C1020.85 96 1014.02 113.911 1007.1 132.059C1022.86 132.059 1037.44 132.059 1052.72 132.059C1048.51 122.558 1044.59 113.724 1040.37 104.063Z" fill="#6F0714"/>
<path d="M481.919 89.9669C496.379 122.898 510.649 155.428 525.434 189.131C516.718 189.131 508.763 188.395 501.005 189.314C490.821 190.521 484.411 187.692 482.3 177.042C479.548 163.162 471.324 158.707 457.11 160.144C441.709 161.702 426.028 160.623 410.474 160.413C406.937 160.365 405.304 161.534 404.171 164.778C401.737 171.746 399.044 178.633 396.174 185.434C395.548 186.918 393.761 188.922 392.466 188.954C381.234 189.233 369.993 189.115 358 189.115C358.801 186.665 359.296 184.889 359.954 183.175C378.255 135.467 396.463 87.7224 415.023 40.1157C417.389 34.0487 418.322 28.8012 414.66 23.1655C413.748 21.7618 413.413 19.9836 412.691 18.0519C420.371 12.7602 427.762 7.43773 435.399 2.49396C439.763 -0.331158 442.822 0.902969 444.952 5.75137C457.225 33.6835 469.473 61.6264 481.919 89.9669ZM438.604 78.7264C437.759 79.7574 436.58 80.6581 436.121 81.8391C430.081 97.3772 424.129 112.949 418.209 128.533C417.779 129.666 417.768 130.957 417.587 132.027C432.598 132.027 447.167 132.027 462.531 132.027C454.515 113.952 446.832 96.6233 438.604 78.7264Z" fill="#6F0714"/>
<path d="M1228.09 2.21029C1254.02 4.79258 1273.67 16.733 1288.14 38.6908C1278.87 44.5829 1269.93 50.2721 1261.82 55.4266C1254.48 48.571 1248.17 41.3806 1240.61 35.9068C1229.18 27.6281 1216.04 28.1717 1205.22 35.8258C1191.31 45.6693 1192.11 63.6405 1207.28 71.084C1215.07 74.9043 1223.69 77.0127 1231.86 80.0691C1241.85 83.8013 1252.04 87.1288 1261.66 91.6563C1298.57 109.028 1296.31 162.738 1264.62 182.286C1231.26 202.869 1181.6 190.792 1161.48 155.771C1170.51 150.077 1179.58 144.356 1187.35 139.454C1195.15 146.558 1201.64 153.889 1209.47 159.275C1220.54 166.888 1232.6 166.685 1243.89 158.932C1257.78 149.391 1257.02 130.91 1242.08 123.449C1233.98 119.402 1225.01 117.126 1216.47 113.934C1206.84 110.333 1196.89 107.33 1187.73 102.769C1170.56 94.2197 1161.18 80.1723 1160.46 60.5498C1159.68 39.5092 1167.25 22.9589 1185.6 12.0275C1198.49 4.34483 1212.64 1.5195 1228.09 2.21029Z" fill="#6F0714"/>
<path d="M775.317 189.149C737.667 189.147 700.561 189.147 663.008 189.147C663.008 127.714 663.008 66.7752 663.008 5.26556C699.66 5.26556 736.414 5.26556 773.526 5.26556C773.526 14.2889 773.526 23.117 773.526 32.6427C769.815 32.6427 766.37 32.6439 762.925 32.6426C743.869 32.6347 724.812 32.6038 705.756 32.6301C698.994 32.6395 697.438 34.1732 697.415 40.7678C697.376 52.0152 697.405 63.2627 697.405 75.2794C712.648 75.2794 727.488 75.2794 742.642 75.2794C742.642 84.8853 742.642 93.7187 742.642 103.127C727.723 103.127 713.036 103.127 697.415 103.127C697.415 105.726 697.416 107.765 697.415 109.803C697.414 123.998 697.409 138.193 697.414 152.388C697.416 159.933 698.697 161.234 706.162 161.237C729.107 161.244 752.052 161.241 774.998 161.241C777.088 161.241 779.178 161.241 781.675 161.241C781.675 170.654 781.675 179.481 781.675 188.809C779.619 188.93 777.74 189.04 775.317 189.149Z" fill="#6F0714"/>
<path d="M534.981 147.626C534.981 99.8505 534.981 52.6582 534.981 5.07904C546.547 5.07904 557.69 5.07904 569.799 5.07904C569.799 7.48091 569.799 9.70983 569.799 11.9387C569.791 58.5779 569.78 105.217 569.779 151.856C569.779 160.367 570.633 161.237 579.107 161.243C601.455 161.257 623.803 161.244 646.151 161.241C648.252 161.241 650.352 161.241 652.81 161.241C652.81 170.671 652.81 179.517 652.81 188.769C613.715 188.769 574.729 188.769 534.981 188.769C534.981 175.293 534.981 161.751 534.981 147.626Z" fill="#6F0714"/>
<path d="M1140.21 58.3201C1138.43 61.3572 1136.87 64.03 1135.21 66.8855C1129.86 65.9344 1126.83 63.6967 1129.02 57.9436C1132.08 49.9054 1129.45 43.9095 1122.86 38.9214C1119.94 36.714 1117.51 33.8512 1114.91 31.238C1110.59 26.9046 1110.46 21.841 1114.66 17.542C1119.13 12.9551 1123.66 8.42243 1128.24 3.94656C1132.2 0.0770782 1137.04 0.0393974 1141.01 3.87605C1145.34 8.06023 1149.54 12.3651 1153.79 16.6282C1158.28 21.1342 1158.94 25.5902 1155.77 31.1844C1150.7 40.1331 1145.55 49.0344 1140.21 58.3201Z" fill="#6F0714"/>
<path d="M614.661 274.185C614.474 259.593 614.474 245.456 614.474 231.38C619.78 229.749 623.184 230.931 626.104 235.472C631.186 243.377 636.922 250.863 643.489 258.08C643.489 249.268 643.489 240.456 643.489 231.172C646.346 231.172 648.73 231.172 651.582 231.172C651.582 245.581 651.582 260.039 651.582 274.526C646.573 276.178 643.007 274.926 639.985 270.196C635.049 262.471 629.445 255.172 622.856 248.146C622.856 256.945 622.856 265.744 622.856 275.171C619.745 274.965 617.297 274.802 614.661 274.185Z" fill="#6F0714"/>
<path d="M741.182 253.247C742.68 255.217 743.923 256.844 746.171 259.786C746.171 249.304 746.171 240.496 746.171 231.199C749.07 231.199 751.455 231.199 754.288 231.199C754.288 245.627 754.288 260.073 754.288 274.535C749.199 276.193 745.658 274.872 742.646 270.135C737.772 262.466 732.205 255.236 725.93 246.413C725.93 256.691 725.93 265.409 725.93 274.624C722.679 274.624 720.122 274.624 717.312 274.624C717.312 260.26 717.312 245.935 717.312 231.415C722.181 229.78 725.712 230.566 728.598 235.235C732.368 241.335 736.788 247.034 741.182 253.247Z" fill="#6F0714"/>
<path d="M1004.2 233.591C1005.63 232.282 1007.02 230.902 1008.49 230.814C1013.32 230.527 1018.18 230.707 1023.03 230.709C1031.7 230.712 1036.57 233.667 1038.03 239.804C1039.56 246.283 1036.99 250.647 1029.83 254.389C1033.78 260.861 1037.74 267.369 1041.97 274.304C1036.26 275.832 1031.89 276.023 1029.33 269.871C1027.86 266.32 1025.25 263.252 1023.62 259.749C1021.45 255.075 1018.23 253.467 1012.73 255.327C1012.73 261.558 1012.73 268.059 1012.73 274.847C1009.65 274.847 1007.2 274.847 1004.19 274.847C1004.19 261.192 1004.19 247.651 1004.2 233.591ZM1019.02 237.555C1011.75 237.68 1010.96 239.118 1013.67 247.868C1016.26 247.868 1018.96 247.863 1021.66 247.87C1025.47 247.879 1029.72 247.927 1029.8 242.769C1029.88 237.569 1025.7 237.478 1021.83 237.573C1021.24 237.588 1020.66 237.571 1019.02 237.555Z" fill="#6F0714"/>
<path d="M822.663 268.552C822.675 270.803 822.675 272.528 822.675 274.651C814.117 274.825 805.677 275.944 797.505 274.923C787.31 273.649 780.073 264.456 779.295 254.255C778.564 244.678 784.759 235.373 794.363 231.62C804.296 227.738 815.246 230.555 821.791 239.024C819.877 240.274 817.996 241.502 816.042 242.778C814.447 241.579 813.114 240.474 811.681 239.518C805.559 235.433 798.161 236.112 793.028 241.182C787.548 246.596 786.603 255.604 790.84 262.053C794.958 268.322 802.443 270.629 809.204 267.815C812.571 266.413 814.564 264.4 814.265 260.362C813.954 256.167 814.195 251.932 814.195 247.423C817.29 247.423 819.691 247.423 822.65 247.423C822.65 254.515 822.65 261.272 822.663 268.552Z" fill="#6F0714"/>
<path d="M1300.47 266.187C1302.5 267.314 1304.48 269.125 1305.89 268.762C1308.36 268.132 1310.93 266.513 1312.5 264.544C1312.99 263.918 1310.84 260.327 1309.16 259.06C1307.25 257.611 1304.52 257.232 1302.14 256.404C1292.49 253.042 1288.86 246.973 1291.66 238.84C1293.9 232.307 1302.97 228.207 1310.77 230.99C1314.68 232.384 1318.01 235.394 1322.63 238.331C1319.16 240.575 1317.27 241.795 1315.48 242.954C1313.08 241.107 1311.16 239.019 1308.78 237.933C1305.21 236.302 1301.68 237.042 1299.98 240.959C1298.22 245.05 1301.53 246.453 1304.44 247.666C1307.83 249.081 1311.46 249.985 1314.73 251.615C1319.68 254.076 1322.31 258.133 1321.65 263.908C1320.99 269.799 1317.6 273.425 1312.11 275.154C1304.49 277.554 1297.04 274.805 1291.53 267.454C1294.19 265.429 1296.14 261.172 1300.47 266.187Z" fill="#6F0714"/>
<path d="M919.273 240.309C916.459 242.671 914.468 243.185 911.649 240.275C909.929 238.499 906.524 237.581 903.941 237.7C902.348 237.774 900.094 240.321 899.623 242.142C899.298 243.398 901.156 245.994 902.671 246.795C906.244 248.684 910.286 249.661 913.971 251.368C919.246 253.812 922.021 258.014 921.331 263.976C920.658 269.797 917.302 273.463 911.718 275.152C903.903 277.516 896.663 274.862 891.114 267.185C892.917 265.888 894.725 264.587 896.586 263.249C899.044 265.046 901.17 267.065 903.679 268.322C907.1 270.036 910.265 269.003 912.085 265.599C914.231 261.587 911.171 260.003 908.229 258.683C906.287 257.811 904.226 257.2 902.202 256.52C892.209 253.159 888.366 246.798 891.407 238.617C893.955 231.764 903.913 227.969 911.784 231.514C915.292 233.094 920.879 233.774 919.273 240.309Z" fill="#6F0714"/>
<path d="M562.133 241.806C564.201 237.502 561.722 231.005 569.959 230.251C576.316 244.642 582.83 259.39 589.614 274.748C584.461 275.179 579.944 276.724 578.255 270.345C578.014 269.432 576.297 268.389 575.204 268.319C571.332 268.07 567.426 268.074 563.553 268.305C562.458 268.371 560.691 269.368 560.489 270.231C559.083 276.244 554.811 275.445 549.55 274.699C553.754 263.733 557.872 252.993 562.133 241.806ZM566.664 253.441C565.799 255.895 564.934 258.349 563.972 261.08C567.691 261.08 570.63 261.08 574.338 261.08C572.463 256.817 570.888 253.235 568.925 248.772C567.934 250.726 567.445 251.691 566.664 253.441Z" fill="#6F0714"/>
<path d="M384.341 247.08C382.237 256.053 384.346 262.676 390.252 266.593C396.412 270.678 402.12 269.796 411.237 263.149C413.007 264.3 414.905 265.535 416.814 266.777C409.461 277.306 393.489 279.002 383.074 270.669C372.549 262.248 371.344 247.427 380.397 237.744C390.162 227.3 406.636 227.5 416.725 238.408C413.936 241.961 411.57 243.526 406.988 239.95C399.035 233.743 389.776 236.815 384.341 247.08Z" fill="#6F0714"/>
<path d="M1205.9 234.259C1207.65 235.721 1209.05 236.966 1211.06 238.744C1208.57 240.372 1206.7 241.59 1204.97 242.72C1193.79 235.394 1186.3 235.391 1180.46 242.483C1175.48 248.545 1175.66 258.079 1180.87 263.946C1186.96 270.799 1194.17 270.636 1204.87 263.207C1206.67 264.371 1208.57 265.606 1210.51 266.86C1203.65 275.92 1191.46 278.482 1180.95 273.382C1171.11 268.606 1166.04 258.094 1168.6 247.73C1171.27 236.925 1181.52 229.206 1192.93 230.217C1197.21 230.596 1201.34 232.715 1205.9 234.259Z" fill="#6F0714"/>
<path d="M509.973 247.802C513.128 247.591 515.575 248.157 514.636 251.411C514.248 252.754 512.058 253.983 510.45 254.458C508.679 254.981 506.636 254.577 505.084 254.577C504.466 255.332 504.039 255.61 504.008 255.927C502.791 268.271 502.795 268.272 515.234 268.244C524.26 268.224 524.26 268.224 523.725 274.754C514.543 274.754 505.312 274.754 495.692 274.754C495.692 260.488 495.692 246.023 495.692 231.114C504.344 231.114 512.937 231.114 521.876 231.114C521.876 233.148 521.876 234.989 521.876 237.545C516.055 237.545 510.34 237.545 504.205 237.545C504.205 241.227 504.205 244.21 504.205 247.545C506.044 247.634 507.758 247.717 509.973 247.802Z" fill="#6F0714"/>
<path d="M1080.85 248.404C1082.86 252.85 1084.66 256.903 1087.1 262.382C1091.15 253.157 1094.66 245.115 1098.2 237.081C1101.25 230.156 1101.26 230.161 1109.51 231.244C1109.06 232.708 1108.77 234.142 1108.2 235.456C1102.87 247.731 1097.6 260.033 1092.02 272.191C1091.25 273.867 1088.76 275.929 1087.25 275.792C1085.37 275.621 1082.87 273.725 1082.04 271.927C1076.44 259.779 1071.21 247.465 1065.89 235.192C1065.37 234.003 1065.06 232.727 1064.58 231.264C1069.96 229.879 1073.85 230.19 1075.64 236.25C1076.84 240.309 1078.95 244.1 1080.85 248.404Z" fill="#6F0714"/>
<path d="M1247.26 237.703C1245.88 240.775 1245 243.789 1243.96 247.386C1248.57 247.667 1251.8 247.864 1254.95 248.057C1256.23 253.789 1256.23 253.789 1245.23 255.077C1245.23 259.167 1245.23 263.31 1245.23 268.254C1250.22 268.254 1255.04 268.535 1259.82 268.177C1264.89 267.796 1265.97 270.034 1264.81 274.762C1255.6 274.762 1246.36 274.762 1236.75 274.762C1236.75 260.357 1236.75 245.879 1236.75 231.045C1245.55 231.045 1254.17 231.045 1263.04 231.045C1263.04 233.281 1263.04 235.158 1263.04 237.646C1257.79 237.646 1252.78 237.646 1247.26 237.703Z" fill="#6F0714"/>
<path d="M969.929 237.656C965.01 237.654 960.585 237.654 955.781 237.654C955.781 241.189 955.781 244.185 955.781 247.48C959.168 247.679 962.403 247.87 966.019 248.083C966.019 250.164 966.019 251.98 966.019 254.273C962.672 254.48 959.454 254.679 955.819 254.904C955.819 259.148 955.819 263.283 955.819 268.089C962.225 268.089 968.525 268.089 975.264 268.089C975.485 270.541 975.649 272.38 975.858 274.708C966.238 274.708 957.021 274.708 947.384 274.708C947.384 260.353 947.384 245.742 947.384 230.934C956.111 230.934 964.591 230.934 973.537 230.934C973.357 233.817 976.077 237.449 969.929 237.656Z" fill="#6F0714"/>
<path d="M446.178 275.113C444.733 274.279 442.996 273.459 442.986 272.617C442.817 258.839 442.866 245.059 442.866 231.005C445.747 231.005 448.17 231.005 451.105 231.005C451.105 243.282 451.105 255.259 451.105 268C457.873 268 464.156 268 470.869 268C471.051 270.584 471.181 272.432 471.37 275.117C462.876 275.117 454.783 275.117 446.178 275.113Z" fill="#6F0714"/>
<path d="M1143.27 271.814C1142.09 277.822 1138.07 273.874 1135.17 275.243C1135.17 260.244 1135.17 245.819 1135.17 231.05C1137.85 231.05 1140.23 231.05 1143.27 231.05C1143.27 244.699 1143.27 258 1143.27 271.814Z" fill="#6F0714"/>
<path d="M679.781 233.271C682.188 231.83 684.576 230.928 687.736 229.734C687.736 245.609 687.736 259.997 687.736 274.763C685.343 274.763 682.912 274.763 679.763 274.763C679.763 261.121 679.763 247.466 679.781 233.271Z" fill="#6F0714"/>
</svg>
